<svg id="Слой_1" data-name="Слой 1" xmlns="http://www.w3.org/2000/svg" viewBox="0 0 25.61812 11.99944"><defs><style>.cls-1{fill:#7c529e;}.cls-1,.cls-2{fill-rule:evenodd;}.cls-2{fill:#fff;}</style></defs><title>viber</title><path class="cls-1" d="M683.36111,388.067c-1.77933.01953-3.71851-.02-5.658-.14014a.5155.5155,0,0,0-.44.2c-.49973.55981-.99945,1.11987-1.51932,1.67944-.08.08008-.15988.23975-.29993.18018-.14-.06055-.08-.22046-.08-.33984,0-.46021-.02011-.9397,0-1.3999.01984-.35962-.06009-.54-.47989-.54a9.79625,9.79625,0,0,1-1.51935-.17969,3.45571,3.45571,0,0,1-3.03906-3.29883,9.96377,9.96377,0,0,1,0-2.55908,3.39152,3.39152,0,0,1,3.0589-3.05908,52.52457,52.52457,0,0,1,7.71759-.59961c2.69888-.04,5.398.03955,8.09714.17969a25.41573,25.41573,0,0,1,3.87869.5,3.34447,3.34447,0,0,1,2.71927,3.09912,11.57851,11.57851,0,0,1-.04025,2.75879,3.19785,3.19785,0,0,1-1.97888,2.5791,9.492,9.492,0,0,1-3.05914.63965c-2.41937.18018-4.79852.31982-7.35788.30029Z" transform="translate(-670.2417 -378)"/><path class="cls-2" d="M676.75949,385.44785a1.09688,1.09688,0,0,0,.89972-.67993c.11993-.32007-.11993-.45972-.32-.61987-.13977-.12012-.2999-.22021-.43964-.31982a.49184.49184,0,0,0-.79993.12012.33842.33842,0,0,1-.47961.11963,2.25972,2.25972,0,0,1-1.13983-1.09937.43165.43165,0,0,1,.14-.59985.40237.40237,0,0,0,.23978-.37988,2.504,2.504,0,0,0-.8396-1.1394.38729.38729,0,0,0-.29993,0,.82.82,0,0,0-.55981,1.15942,6.062,6.062,0,0,0,3.359,3.37891c.09982.03955.19989.03955.23984.06006Zm-1.15967-4.69849c-.08.01978-.25995-.06006-.25995.11987,0,.11987.14008.1001.24011.11987a1.89185,1.89185,0,0,1,1.81927,1.87915c.02014.10034-.02011.26025.11993.28027.15982,0,.1199-.16016.1199-.25977a2.178,2.178,0,0,0-2.03928-2.1394Zm8.29733,2.35913v-1.69971c0-.33984.12018-.61938.49969-.61938.36,0,.46008.25977.46008.59985v.21973c0,.52,0,.52.47961.37988a1.336,1.336,0,0,1,1.61945.65967,2.09207,2.09207,0,0,1,0,2.15918,1.34035,1.34035,0,0,1-1.93887.5c-.12021-.08008-.16019-.12012-.26022.02a.43593.43593,0,0,1-.58.12012.52341.52341,0,0,1-.27975-.54v-1.79932Zm2.37909.61963c0-.53955-.2999-.93945-.69958-.95947-.4198-.02-.73984.35986-.73984.8999a.87066.87066,0,0,0,.69986.95947c.41983.04.73956-.36035.73956-.8999Zm-5.978.02026c.32-.84009.58-1.53955.83994-2.25952a2.68237,2.68237,0,0,1,.13974-.35962c.1199-.27979.32-.43994.63977-.32007.33984.12012.37985.38013.28009.69971-.32.83984-.65991,1.67969-.97971,2.53955-.14.35938-.28.71948-.41977,1.05957a.53824.53824,0,0,1-.46008.37939.49609.49609,0,0,1-.49973-.3999c-.45978-1.1792-.9397-2.37891-1.39948-3.55835a.48736.48736,0,0,1,.2999-.72c.35971-.11987.5199.1001.6398.3999.27979.7998.57965,1.59961.91953,2.53931Zm9.15707.27954h-.85974c-.22,0-.23984.1001-.14.26025a.947.947,0,0,0,1.1398.31982,4.92221,4.92221,0,0,0,.45981-.21973.3783.3783,0,0,1,.56009.11963.38747.38747,0,0,1-.14.57959,2.07581,2.07581,0,0,1-2.05963.28027,1.64239,1.64239,0,0,1-.99951-1.63965,1.74007,1.74007,0,0,1,1.49954-1.81909,1.68827,1.68827,0,0,1,1.81927,1.41919c.1.5-.04.68018-.55988.69971Zm-.41986-.63965a1.11537,1.11537,0,0,0,.25995,0c.15991-.01978.39972.1001.4397-.07983.06009-.23975-.13977-.41968-.33987-.51978a.636.636,0,0,0-.77957.1001c-.12018.11963-.25992.25977-.19983.43945.06012.16016.23984.06006.37958.08032.0802,0,.16013-.02026.24005-.02026Z" transform="translate(-670.2417 -378)"/><path class="cls-2" d="M676.75949,385.44785a2.27217,2.27217,0,0,1-.23984-.06006,6.00234,6.00234,0,0,1-3.359-3.37891.8044.8044,0,0,1,.55981-1.15942.38729.38729,0,0,1,.29993,0,2.504,2.504,0,0,1,.8396,1.1394c.02014.18018-.11987.27979-.23978.37988a.42789.42789,0,0,0-.14.59985A2.11469,2.11469,0,0,0,675.62,384.068a.33842.33842,0,0,0,.47961-.11963c.22-.33984.5-.32031.79993-.12012a3.47471,3.47471,0,0,1,.43964.31982c.2001.16016.44.27979.32.61987a1.09644,1.09644,0,0,1-.89972.67993Zm14.29541-1.7793v-1.19971a.48478.48478,0,0,1,.27979-.48.45261.45261,0,0,1,.57968.09961c.12018.18018.18.1001.27979,0a.68189.68189,0,0,1,.52014-.15967.44578.44578,0,0,1,.39969.37988c.04.21973-.04.3999-.22.43994-.81979.19971-.93967.75977-.85974,1.47949a3.20292,3.20292,0,0,1-.02014.75977.46741.46741,0,0,1-.51984.46.47216.47216,0,0,1-.43994-.5c.00055-.3999.00055-.83984.00055-1.2793Zm-8.51724.15967v-1.13965c0-.31982.14-.51953.47989-.51953.31976,0,.45978.19971.45978.49951v2.29932c0,.31982-.15988.52026-.47989.52026-.31976-.02075-.45978-.22046-.45978-.54028v-1.11963Zm-6.93784-3.07886a2.178,2.178,0,0,1,2.03928,2.1394c0,.09961.03992.25977-.1199.25977s-.11993-.16016-.11993-.28027a1.89185,1.89185,0,0,0-1.81927-1.87915c-.1-.01978-.24011,0-.24011-.11987.02017-.17993.18-.1001.25995-.11987Zm7.95746.57959c-.0397.3-.17972.49976-.49976.51978a.50906.50906,0,0,1-.54-.51978.53705.53705,0,0,1,.54-.53955.56049.56049,0,0,1,.49976.53955Z" transform="translate(-670.2417 -378)"/><path class="cls-2" d="M677.07922,382.68857c-.01984.08008.04025.21973-.09976.24-.18.01978-.14-.13989-.15985-.24a1.15112,1.15112,0,0,0-1.07974-1.11938c-.1-.02026-.25992,0-.24008-.1604.02008-.15967.18-.09961.28006-.07983a1.43592,1.43592,0,0,1,1.29938,1.35962Z" transform="translate(-670.2417 -378)"/><path class="cls-2" d="M676.53952,382.56845c0,.08008,0,.18018-.1199.2002-.07993,0-.11987-.06006-.14-.13989a.4904.4904,0,0,0-.47992-.49976c-.07993-.02026-.17966-.04053-.13974-.16016.01987-.08008.09982-.08008.17975-.08008a.7338.7338,0,0,1,.69986.67969Z" transform="translate(-670.2417 -378)"/></svg>