<?xml version="1.0" encoding="utf-8"?>
<!-- Generator: Adobe Illustrator 19.2.1, SVG Export Plug-In . SVG Version: 6.00 Build 0)  -->
<svg version="1.1" id="Layer_1" xmlns="http://www.w3.org/2000/svg" xmlns:xlink="http://www.w3.org/1999/xlink" x="0px" y="0px"
	 viewBox="0 0 100 100" style="enable-background:new 0 0 100 100;" xml:space="preserve">
<style type="text/css">
	.st0{fill:#7C529D;}
	.st1{fill:#5F4076;}
	.st2{fill:#62427A;}
	.st3{fill:#34283F;}
	.st4{fill:#030104;}
	.st5{fill:#020103;}
	.st6{fill:#5E4172;}
	.st7{fill:#FFFEFF;}
	.st8{fill:#FDFDFE;}
	.st9{fill:#FDFCFE;}
	.st10{fill:#C1AFD2;}
</style>
<path class="st0" d="M0.1,87.9c0-25.3,0-50.5,0-75.8c0.2-0.2,0.1-0.5,0.1-0.8c0-0.5,0.1-1,0.2-1.5c0.9-3.6,2.9-6.4,6.2-8.2
	c1.6-0.9,3.3-1.4,5.1-1.5c0,0,0.1,0,0.1-0.1c25.5,0,51.1,0,76.6,0c0.1,0,0.1,0.1,0.2,0.1c0.1,0,0.3,0.1,0.4,0.1c0.4,0,0.7,0,1.1,0.1
	c0.7,0.2,1.3,0.3,1.9,0.6c2.5,0.9,4.5,2.5,6,4.8c0.8,1.2,1.3,2.4,1.7,3.8c0.1,0.3,0.2,0.7,0.3,1c0,0,0,0.2,0.1,0.1
	c0,0.2,0,0.3,0,0.5c-0.1,0.1-0.1,0.2,0,0.2c0,25.9,0,51.7,0,77.6c-0.1,0.1-0.1,0.2,0,0.2c0,0.2,0,0.3,0,0.5c-0.1-0.1-0.1,0-0.1,0.1
	c0,0.2-0.1,0.4-0.1,0.5c-1,4.6-4.4,8.2-8.8,9.4c-0.5,0.1-0.9,0.2-1.4,0.3c-0.1,0-0.1,0-0.2,0.2c-0.1,0-0.2,0-0.2,0
	c-0.1-0.1-0.1-0.1-0.2,0c-25.7,0-51.5,0-77.2,0c0,0-0.1,0-0.1,0c-0.1,0-0.2,0-0.3,0c0,0-0.1-0.1-0.1-0.1c-0.1,0-0.2-0.1-0.2,0.1
	c-0.1,0-0.2,0-0.3,0c-0.1-0.1-0.1-0.1-0.2-0.2c-0.8-0.2-1.5-0.3-2.3-0.6c-3.1-1.2-5.4-3.3-6.9-6.4c-0.3-0.7-0.6-1.4-0.8-2.1
	c-0.2-0.7-0.3-1.4-0.4-2.1c0-0.1,0-0.3,0-0.4C0.2,88.1,0.3,88,0.1,87.9z M11.9,24.9c0,0.1,0,0.1,0,0.2c0,0.3,0,0.5,0,0.8
	c0,0.1,0,0.1,0,0.2c0,0.8,0.1,1.7,0.3,2.5c0.2,1,0.5,1.9,0.9,2.9c0.8,1.9,1.6,3.8,2.5,5.7c0.5,1.2,1.1,2.3,1.7,3.5
	c3.7,7.2,8.2,13.9,13.5,20c5.7,6.6,12.2,12.2,19.4,17.1c5.6,3.8,11.5,7,17.7,9.7c1.2,0.6,2.5,1,3.8,1.3c1,0.2,1.9,0.4,2.9,0.2
	c1.6-0.3,3-0.8,4.4-1.5c2.6-1.4,4.8-3.2,6.6-5.5c1.2-1.5,2.2-3.2,2.7-5.1c0.5-2.1,0.1-4-1.3-5.6c-0.4-0.5-0.9-0.9-1.4-1.3
	c-1.1-0.9-2.2-1.7-3.3-2.6c-2.6-2-5.2-3.9-7.9-5.7c-1.1-0.7-2.3-1.3-3.6-1.7c-1.2-0.4-2.5-0.4-3.7-0.1c-0.9,0.2-1.7,0.6-2.5,1.2
	c-1,0.7-1.7,1.6-2.4,2.6c-0.4,0.5-0.8,1.1-1.2,1.5c-1.4,1.5-3.1,1.8-5,1.5c-0.7-0.1-1.3-0.4-1.9-0.7c-2.3-1-4.4-2.2-6.5-3.6
	c-3-2-5.7-4.5-8-7.3c-1.8-2.3-3.3-4.9-4.6-7.6c-0.5-1.1-0.9-2.2-1-3.4c-0.2-1.5,0.2-2.9,1-4.2c0.6-0.8,1.3-1.5,2.1-2
	c0.9-0.6,1.8-1.3,2.6-2.1c1.5-1.6,2.1-3.5,1.3-5.7c-0.3-0.9-0.7-1.7-1.1-2.5c-2.2-4.2-5-8-8.2-11.6c-0.8-0.9-1.7-1.8-2.7-2.5
	c-0.5-0.4-1.1-0.8-1.7-1c-1.2-0.4-2.3-0.5-3.5-0.3c-1.1,0.2-2.1,0.6-3.1,1.1c-2,0.9-3.8,2.1-5.4,3.7C13.1,19.2,12,21.8,11.9,24.9z
	 M87.8,46.6c0-1.7-0.2-3.4-0.4-5.1c-0.2-1.4-0.5-2.8-0.9-4.2c-1.7-5.9-4.8-11-9.1-15.4c-3.2-3.3-6.9-5.9-11.1-7.8
	c-2.3-1.1-4.7-1.8-7.2-2.3c-0.6-0.1-1.2-0.2-1.8-0.3c-0.4-0.1-0.8-0.1-1.3-0.1c-0.6-0.1-1.3-0.1-1.9-0.2c-0.6,0-1.3-0.1-1.9-0.1
	c-0.4,0-0.9,0-1.3,0.1c-0.7,0.1-1.1,0.5-1.3,1.1c-0.2,0.5-0.2,1-0.1,1.5c0.1,0.4,0.3,0.7,0.6,0.9c0.4,0.2,0.8,0.3,1.2,0.4
	c0.9,0.1,1.7,0.2,2.6,0.3c0.8,0.1,1.7,0.3,2.5,0.4c3,0.6,5.9,1.4,8.6,2.6c2.7,1.1,5.1,2.5,7.4,4.3c3,2.4,5.3,5.4,7,8.8
	c1.6,3.3,2.7,6.7,3.4,10.3c0.2,0.8,0.3,1.7,0.4,2.5c0.1,0.9,0.3,1.8,0.4,2.7c0.1,0.6,0.1,1.2,0.1,1.8c0,0.4,0.1,0.8,0.3,1.2
	c0.2,0.5,0.6,0.8,1.1,0.9c0.4,0.1,0.8,0.1,1.2,0c0.8-0.2,1.3-0.6,1.4-1.4c0.1-0.3,0.1-0.6,0.1-0.9C87.8,47.9,87.8,47.2,87.8,46.6z
	 M54.6,20.1c-0.3,0-0.5,0-0.7,0.1c-0.8,0.1-1.3,0.6-1.5,1.4c-0.1,0.2-0.1,0.5-0.1,0.7c-0.1,0.8,0.3,1.5,1.1,1.8
	c0.4,0.2,0.8,0.2,1.2,0.3c1,0.2,2,0.3,3,0.6c2.4,0.6,4.7,1.3,6.9,2.4c3,1.5,5.3,3.6,6.8,6.5c0.9,1.6,1.5,3.3,1.9,5.1
	c0.5,2,1,3.9,1.1,6c0,0.5,0.1,0.9,0.3,1.4c0.2,0.5,0.5,0.8,1,1c0.6,0.1,1.1,0.1,1.7-0.1c0.5-0.2,0.8-0.5,0.9-0.9
	c0.1-0.3,0.1-0.7,0.2-1c0-0.5,0-1,0-1.4c0.1-1.2-0.1-2.4-0.2-3.6c-0.2-1.4-0.6-2.7-1.1-4c-1.7-4.6-4.7-8.3-8.6-11.1
	c-1.8-1.3-3.7-2.4-5.8-3.1c-0.9-0.3-1.7-0.6-2.6-0.8c-1.1-0.3-2.2-0.4-3.2-0.6c-0.4-0.1-0.8-0.1-1.1-0.1
	C55.2,20.2,54.9,20.1,54.6,20.1z M69.4,41.4c-0.1-1.1-0.2-2-0.5-3c-0.7-2.2-2-4.1-3.7-5.7c-1.3-1.3-2.8-2.2-4.6-2.8
	c-1.2-0.4-2.4-0.5-3.6-0.3c-0.7,0.1-1.3,0.4-1.6,1.1c-0.2,0.3-0.3,0.7-0.3,1c-0.1,0.7,0.2,1.2,0.8,1.5c0.2,0.1,0.4,0.2,0.6,0.3
	c0.4,0.1,0.8,0.2,1.3,0.3c0.6,0.1,1.3,0.3,1.9,0.5c2.4,0.8,4,2.4,4.9,4.8c0.4,1,0.6,2.1,0.7,3.1c0.1,0.5,0.2,1,0.5,1.4
	c0.3,0.4,0.7,0.7,1.3,0.7c0.9,0.1,1.8-0.3,2.1-1.5C69.3,42.4,69.4,41.9,69.4,41.4z"/>
<path class="st1" d="M0.1,11.5c0-0.1,0.1-0.1,0.1-0.2c0,0.3,0.1,0.6-0.1,0.8C0.1,11.9,0.1,11.7,0.1,11.5z"/>
<path class="st2" d="M0.1,87.9c0.2,0.1,0.2,0.2,0.1,0.3c0,0-0.1,0-0.1,0C0.1,88.1,0.1,88,0.1,87.9z"/>
<path class="st3" d="M0.1,88.2C0.1,88.2,0.1,88.2,0.1,88.2c0.1,0.1,0.1,0.3,0.1,0.4c0,0-0.1,0-0.1,0C0.1,88.5,0.1,88.4,0.1,88.2z"/>
<path class="st4" d="M100.1,11.2c-0.1-0.1-0.1-0.2,0-0.2C100.1,11,100.1,11.1,100.1,11.2z"/>
<path class="st4" d="M100.1,89c-0.1-0.1-0.1-0.2,0-0.2C100.1,88.9,100.1,89,100.1,89z"/>
<path class="st5" d="M11,100c0-0.2,0.2,0,0.2-0.1c0,0,0,0.1,0,0.1C11.2,100,11.1,100,11,100z"/>
<path class="st4" d="M89,100c0.1-0.1,0.2-0.1,0.2,0C89.1,100,89,100,89,100z"/>
<path class="st6" d="M11.3,100C11.3,100,11.3,99.9,11.3,100C11.3,99.9,11.3,100,11.3,100C11.3,100,11.3,100,11.3,100z"/>
<path class="st6" d="M11.7,100C11.7,100,11.7,100,11.7,100C11.7,100,11.7,100,11.7,100z"/>
<path class="st7" d="M11.8,25.8c0-0.3,0-0.5,0-0.8c0-0.1,0-0.1,0-0.2c0.1-3.1,1.2-5.7,3.3-8c1.5-1.6,3.3-2.8,5.4-3.7
	c1-0.4,2-0.9,3.1-1.1c1.2-0.2,2.4-0.1,3.5,0.3c0.6,0.2,1.2,0.6,1.7,1c1,0.8,1.8,1.6,2.7,2.5c3.2,3.5,6,7.4,8.2,11.6
	c0.4,0.8,0.8,1.7,1.1,2.5c0.8,2.1,0.3,4-1.3,5.7c-0.8,0.8-1.7,1.4-2.6,2.1c-0.8,0.6-1.5,1.2-2.1,2c-0.9,1.3-1.2,2.6-1,4.2
	c0.1,1.2,0.5,2.3,1,3.4c1.2,2.7,2.7,5.3,4.6,7.6c2.3,2.9,4.9,5.3,8,7.3c2.1,1.4,4.2,2.6,6.5,3.6c0.6,0.3,1.3,0.5,1.9,0.7
	c1.9,0.3,3.6,0,5-1.5c0.4-0.5,0.8-1,1.2-1.5c0.7-1,1.5-1.9,2.4-2.6c0.8-0.6,1.6-1,2.5-1.2c1.3-0.3,2.5-0.2,3.7,0.1
	c1.3,0.4,2.5,1,3.6,1.7c2.7,1.8,5.4,3.7,7.9,5.7c1.1,0.9,2.2,1.7,3.3,2.6c0.5,0.4,0.9,0.9,1.4,1.3c1.4,1.6,1.8,3.5,1.3,5.6
	c-0.5,1.9-1.5,3.6-2.7,5.1c-1.8,2.3-4,4.1-6.6,5.5c-1.4,0.7-2.9,1.2-4.4,1.5c-1,0.2-1.9,0-2.9-0.2c-1.3-0.3-2.6-0.8-3.8-1.3
	c-6.2-2.7-12.1-6-17.7-9.7c-7.2-4.9-13.7-10.5-19.4-17.1c-5.3-6.1-9.8-12.8-13.5-20c-0.6-1.2-1.2-2.3-1.7-3.5
	c-0.9-1.9-1.7-3.8-2.5-5.7c-0.4-0.9-0.6-1.9-0.9-2.9c-0.2-0.8-0.3-1.7-0.3-2.5C11.8,25.9,11.8,25.9,11.8,25.8z"/>
<path class="st8" d="M87.8,46.6c0,0.7,0,1.3,0,2c0,0.3,0,0.6-0.1,0.9c-0.2,0.8-0.6,1.2-1.4,1.4c-0.4,0.1-0.8,0.1-1.2,0
	c-0.5-0.1-0.9-0.4-1.1-0.9c-0.2-0.4-0.3-0.8-0.3-1.2c0-0.6,0-1.2-0.1-1.8c-0.1-0.9-0.2-1.8-0.4-2.7c-0.1-0.8-0.3-1.7-0.4-2.5
	c-0.7-3.6-1.8-7.1-3.4-10.3c-1.7-3.4-4-6.4-7-8.8c-2.2-1.8-4.7-3.2-7.4-4.3c-2.8-1.2-5.7-2-8.6-2.6c-0.8-0.2-1.6-0.3-2.5-0.4
	C53,15.1,52.1,15,51.3,15c-0.4,0-0.8-0.2-1.2-0.4c-0.4-0.2-0.6-0.5-0.6-0.9c-0.1-0.5,0-1,0.1-1.5c0.2-0.6,0.7-1,1.3-1.1
	c0.4-0.1,0.8-0.1,1.3-0.1c0.6,0,1.3,0,1.9,0.1c0.6,0,1.3,0.1,1.9,0.2c0.4,0,0.8,0,1.3,0.1c0.6,0.1,1.2,0.2,1.8,0.3
	c2.5,0.5,4.9,1.3,7.2,2.3c4.2,1.9,7.9,4.5,11.1,7.8c4.3,4.4,7.4,9.5,9.1,15.4c0.4,1.4,0.7,2.8,0.9,4.2
	C87.6,43.1,87.8,44.8,87.8,46.6z"/>
<path class="st8" d="M54.6,20.1c0.3,0.1,0.6,0.1,1,0.2c0.4,0.1,0.8,0.1,1.1,0.1c1.1,0.2,2.2,0.3,3.2,0.6c0.9,0.2,1.7,0.6,2.6,0.8
	c2.1,0.7,4,1.8,5.8,3.1c4,2.9,6.9,6.5,8.6,11.1c0.5,1.3,0.9,2.7,1.1,4c0.2,1.2,0.3,2.4,0.2,3.6c0,0.5,0,1,0,1.4c0,0.3-0.1,0.7-0.2,1
	c-0.1,0.5-0.5,0.8-0.9,0.9c-0.5,0.2-1.1,0.2-1.7,0.1c-0.5-0.1-0.9-0.4-1-1c-0.1-0.4-0.2-0.9-0.3-1.4c-0.1-2-0.6-4-1.1-6
	c-0.4-1.8-1.1-3.5-1.9-5.1c-1.6-2.9-3.9-5-6.8-6.5c-2.2-1.1-4.5-1.8-6.9-2.4c-1-0.2-2-0.4-3-0.6c-0.4-0.1-0.8-0.2-1.2-0.3
	c-0.8-0.3-1.2-1-1.1-1.8c0-0.2,0.1-0.5,0.1-0.7c0.2-0.8,0.7-1.3,1.5-1.4C54.1,20.1,54.3,20.1,54.6,20.1z"/>
<path class="st9" d="M69.4,41.4c-0.1,0.5-0.1,1-0.2,1.5c-0.3,1.2-1.2,1.5-2.1,1.5c-0.5,0-1-0.3-1.3-0.7c-0.3-0.4-0.5-0.9-0.5-1.4
	c-0.1-1.1-0.3-2.1-0.7-3.1c-0.9-2.4-2.5-4-4.9-4.8c-0.6-0.2-1.2-0.4-1.9-0.5c-0.4-0.1-0.9-0.1-1.3-0.3c-0.2-0.1-0.4-0.1-0.6-0.3
	c-0.6-0.3-0.9-0.8-0.8-1.5c0-0.4,0.2-0.7,0.3-1c0.3-0.7,0.9-0.9,1.6-1.1c1.2-0.2,2.4-0.1,3.6,0.3c1.8,0.6,3.3,1.5,4.6,2.8
	c1.7,1.6,3,3.4,3.7,5.7C69.2,39.4,69.4,40.3,69.4,41.4z"/>
<path class="st10" d="M11.9,24.9c0,0.1,0,0.1,0,0.2C11.8,25,11.8,24.9,11.9,24.9z"/>
<path class="st10" d="M11.8,25.8c0,0.1,0,0.1,0,0.2C11.8,25.9,11.8,25.9,11.8,25.8z"/>
</svg>
